<?xml version="1.0" encoding="UTF-8" standalone="no"?><!DOCTYPE svg PUBLIC "-//W3C//DTD SVG 1.1//EN" "http://www.w3.org/Graphics/SVG/1.1/DTD/svg11.dtd"><svg width="100%" height="100%" viewBox="0 0 625 625" version="1.1" xmlns="http://www.w3.org/2000/svg" xmlns:xlink="http://www.w3.org/1999/xlink" xml:space="preserve" xmlns:serif="http://www.serif.com/" style="fill-rule:evenodd;clip-rule:evenodd;stroke-linejoin:round;stroke-miterlimit:2;"><rect id="Artboard1" x="0" y="0" width="625" height="625" style="fill:none;"/><path d="M419.028,480.054c-0.7,-5.082 -3.062,-13.63 -12.328,-29.991c-8.03,-10.202 -8.599,-25.525 -12.499,-37.939c-1.865,-6.461 -3.798,-12.874 -0.45,-19.009c4.981,-8.882 12.804,-21.851 9.84,-32.477l-0.501,-1.438l-0.558,-1.614l-0.582,-1.644c-1.162,-3.315 -2.351,-6.619 -3.543,-9.923l-1.347,-3.731c-2.491,-6.972 -4.978,-13.878 -8.14,-20.579c-1.559,-3.178 -2.662,-5.411 -2.018,-9.014c2.231,-8.556 2.484,-17.635 2.505,-26.436l0.001,-1.251c0.033,-7.742 -0.575,-15.308 -1.857,-22.948l-0.239,-1.342c-1.804,-10.186 -4.151,-21.301 -10.383,-29.784c-1.397,-0.984 -1.397,-0.984 -2.52,-1.153c-6.155,-0.109 -6.155,-0.109 -16.95,8.407l-1.74,1.415c-3.983,3.1 -7.585,6.439 -11.143,10.012c-0.973,0.983 -1.945,1.965 -2.922,2.943c-3.131,3.13 -6.266,6.241 -9.137,9.615c-0.606,0.716 -1.233,1.415 -1.862,2.111c-1.541,1.685 -3.062,3.376 -4.515,5.138l-1.125,1.393c-0.789,0.928 -1.56,1.871 -2.318,2.826c-0.927,1.678 -1.815,3.004 -3.114,4.423c-6.978,2.263 -6.978,2.263 -14.604,1.531c-2.021,-0.082 -4.043,-0.135 -6.066,-0.182l-3.9,-0.087c-6.168,-0.235 -11.709,0.566 -17.689,1.999c-1.122,0.273 -2.241,0.535 -3.371,0.77c-2.318,0.405 -3.936,0.623 -5.939,-0.709l-1.2,-1.141l-1.185,-0.966l-1.26,-1.034c-1.349,-1.102 -2.698,-2.203 -4.039,-3.313c-10.466,-8.666 -21.527,-16.958 -33.339,-23.724c-5.344,-2.945 -13.802,-8.276 -20.125,-6.525c-2.831,4.247 -2.831,4.247 -2.742,14.985l0.011,1.145c0.029,7.181 0.251,14.406 1.715,21.464c0.545,0.981 0.545,0.981 0.712,2.004l0.201,1.217l0.233,1.368c1.726,10.139 4.573,19.528 8.316,29.1c1.068,2.691 2.064,5.389 2.966,8.141l0.273,0.845l1.016,-0c-0.102,-1.452 -0.102,-1.452 0.387,-2.407l0.629,-1.149c2.105,-4.061 4.335,-7.944 7.08,-11.611l0.858,-1.122c1.599,-2.097 3.239,-4.077 5.11,-5.938c1.694,-1.653 3.214,-3.391 4.733,-5.207c-3.803,-0.079 -7.678,-0.372 -11.399,0.54c-1.714,0.664 -1.714,0.664 -2.826,-0.032c5.309,-3.097 10.923,-3.22 16.9,-3.102l1.897,0.054l-0.508,-1.524c-4.369,-3.799 -10.114,-5.585 -15.645,-6.868l-1.12,-0.245l0,-1.016c5.05,0 10.371,1.68 14.86,3.906c2.204,1.144 4,1.909 6.478,2.191l-0,-1.524c-3.824,-8.871 -10.698,-18.23 -17.678,-24.87c-0.612,-0.568 -1.221,-1.138 -1.821,-1.718c-3.674,-3.559 -7.479,-6.698 -11.692,-9.602l-1.323,-0.897l1.016,-0.508c2.045,0.866 3.835,2.005 5.638,3.284l0.903,0.654c4.541,3.283 8.384,6.814 12.088,11.039l0.676,0.772c5.764,6.544 14.412,15.403 15.241,24.386c-0.79,0.551 -1.577,1.105 -2.358,1.669l-1.198,0.871c-14.183,10.121 -26.703,25.265 -30.859,42.466l-0.258,1.129c-0.514,2.209 -0.861,4.396 -1.097,6.653c-0.57,5.763 -1.611,11.297 -2.904,16.939c-1.956,8.444 -3.011,15.511 0.195,23.825c0.981,2.494 1.923,4.899 2.409,7.546c-2.859,-0.011 -5.718,-0.019 -8.576,-0.025l-3.522,-0.007c-1.718,-0.006 -3.436,-0.013 -5.154,-0.016l-1.651,-0.002c-3.893,-0.02 -7.707,0.139 -11.579,0.558c2.773,0.05 5.547,0.102 8.321,0.156l3.427,0.066c6.55,0.118 13.241,-0.051 19.75,0.794c0.648,0.611 0.648,0.611 1.432,1.971c1.753,2.805 3.439,5.549 5.68,7.999c1.201,1.229 1.734,2.041 2.032,3.747l-1.524,0.508c-10.874,2.881 -21.261,7.057 -31.498,11.684c1.115,-0.252 2.169,-0.557 3.245,-0.945l1.349,-0.523l1.514,-0.581c4.543,-1.745 9.068,-3.41 13.757,-4.717c1.699,-0.473 3.375,-0.971 5.041,-1.553c3.12,-1.099 6.248,-2.329 9.579,-2.51c1.675,0.25 2.507,1.048 3.677,2.229c4.968,5.092 11.296,9.418 17.531,12.823c2.298,1.212 3.849,2.213 5.271,4.414c2.588,7.04 2.072,15.44 0.518,22.643c-0.577,2.639 -1.125,5.283 -1.657,7.931l-7.579,21.119c-45.104,-1.143 -99.282,-3.651 -119.807,-9.157c-20.821,-5.572 -37.183,-21.935 -42.757,-42.756c-10.112,-37.701 -10.112,-116.408 -10.112,-116.408c0,0 0,-78.706 10.112,-116.407c5.574,-20.822 21.936,-37.184 42.757,-42.758c37.701,-10.112 188.943,-10.112 188.943,-10.112c0,0 151.244,0 188.943,10.112c20.822,5.574 37.186,21.936 42.758,42.758c10.072,37.701 10.113,116.407 10.113,116.407c-0,0 -0,78.707 -10.113,116.408c-5.572,20.821 -21.936,37.184 -42.758,42.756c-15.024,4.03 -48.082,6.455 -82.414,7.912Zm-147.969,-69.259c1.718,0.668 3.3,1.519 4.899,2.427c4.399,2.424 8.952,4.144 13.717,5.715l0,0.508c-5.657,0.436 -10.417,-1.999 -15.202,-4.753c-1.73,-0.979 -2.569,-1.343 -4.611,-1.343c-1.077,0.869 -1.077,0.869 -2.064,2c-1.851,2.014 -1.851,2.014 -3.524,2.572c0.801,-1.829 1.907,-3.221 3.207,-4.731l1.168,-1.391c1.213,-0.99 1.213,-0.99 2.41,-1.004Zm68.403,-62.982c2.05,1.745 2.437,2.863 2.661,5.475c0.158,6.699 -1.659,12.942 -6.199,17.988c-5.192,4.966 -11.962,7.471 -19.101,7.717c-5.767,-0.2 -11.848,-2.053 -16.035,-6.191l-0.952,-1.111l-0.508,-0.509c-0.669,-7.584 1.309,-14.077 6.042,-20.001c8.983,-9.883 23.143,-10.112 34.092,-3.368Zm-23.369,-1.016c-1.339,1.339 -2.185,2.614 -3.017,4.318c-1.713,5.643 -1.215,12.387 1.245,17.722c1.448,2.546 2.591,4.458 5.423,5.457c1.429,-0.063 1.429,-0.063 2.211,-0.647c3.295,-4.176 3.024,-10.147 2.774,-15.165c-1.437,-0.374 -2.774,-0.78 -4.064,-1.524c-0.579,-1.564 -0.579,-1.564 -0.508,-3.049l2.032,-1.524c-0.256,-2.22 -1.51,-3.542 -3.048,-5.08c-1.619,-0.508 -1.619,-0.508 -3.048,-0.508Zm-100.082,46.739c8.342,0.518 16.269,2.1 24.385,4.064l0,0.508c-4.526,-0.379 -9.038,-0.874 -13.551,-1.387c-1.227,-0.138 -2.454,-0.275 -3.681,-0.411l-2.345,-0.266l-1.109,-0.122c-2.567,-0.296 -2.567,-0.296 -3.699,-0.862l-0,-1.524Zm25.504,-44.982c7.223,3.567 10.401,9.163 13.175,16.544c0.406,1.349 0.701,2.666 0.947,4.052l0.341,1.703c0.633,4.245 0.633,4.245 -0.585,5.961c-4.139,3.283 -9.377,3.507 -14.441,3.152c-2.713,-0.376 -4.925,-1.689 -7.16,-3.195l-1.056,-0.703c-4.366,-3.321 -6.569,-8.788 -7.581,-14.03c-0.407,-3.936 -0.606,-7.698 1.524,-11.177c4.409,-4.217 9.324,-4.79 14.836,-2.307Zm4.978,3.831c-2.642,-0.777 -3.864,-0.687 -5.144,1.778c-2.166,5.114 -1.377,11.501 0.434,16.601c1.166,2.592 2.376,4.96 5.091,6.07c1.143,-0.063 1.143,-0.063 2.159,-1.079c2.565,-4.383 2.691,-8.749 2.54,-13.717l-3.556,-0.508l-0.508,-3.048l1.524,-1.016l-0,-2.032c-0.829,-1.243 -1.426,-2.11 -2.54,-3.049Zm-6.605,53.344l0,1.016c-1.809,0.428 -3.619,0.849 -5.429,1.27l-1.551,0.367l-1.504,0.347l-1.378,0.323c-1.314,0.233 -2.523,0.275 -3.855,0.233l0.508,-1.524c1.725,-0.343 3.45,-0.68 5.176,-1.016l1.477,-0.294l1.434,-0.278l1.314,-0.258c1.289,-0.189 2.508,-0.219 3.808,-0.186Zm104.696,3.524c-6.407,-0.914 -12.831,-1.681 -19.254,-2.276l-1.443,-0.136c-0.888,-0.083 -1.776,-0.16 -2.665,-0.232c-1.911,-0.17 -2.996,-0.305 -4.621,-1.388c4.905,-0.146 9.745,0.103 14.637,0.476l1.791,0.134c4.271,0.341 4.271,0.341 5.417,0.914c1.493,0.154 2.984,0.289 4.479,0.414c5.52,0.51 10.89,1.499 16.319,2.602l2.703,0.535c6.064,1.203 12.125,2.425 18.062,4.164l1.82,0.53l1.324,0.391l-0,0.508c-3.284,-0.314 -6.431,-0.864 -9.653,-1.556c-9.292,-1.92 -18.677,-3.599 -28.101,-4.963l-0.857,-0.085l0.042,-0.032Zm-75.706,-17.432l1.195,-0.018c2.51,0.013 4.194,0.403 6.393,1.733c-0.158,1.206 -0.158,1.206 -0.508,2.54c-1.524,1.016 -1.524,1.016 -3.08,1.365l-1.492,0.667c-0.671,1.756 -0.671,1.756 -1.016,3.556l-1.016,1.016c-1.238,-0.031 -1.238,-0.031 -2.54,-0.508c-0.794,-1.174 -0.794,-1.174 -1.524,-2.54c-1.491,-1.696 -3.181,-2.855 -5.081,-4.064c0.032,-0.921 0.032,-0.921 0.508,-2.032c2.766,-1.491 5.051,-1.761 8.161,-1.715Zm113.767,-2.349l-0,1.016l-1.399,0.03c-20.33,0.463 -40.675,1.507 -60.632,5.638l-1.918,0.39l-1.679,0.356c-1.364,0.181 -2.181,0.132 -3.464,-0.318c4.31,-1.562 8.683,-2.505 13.177,-3.366l1.647,-0.317c6.597,-1.234 13.229,-2.121 19.912,-2.731l1.103,-0.102c11.055,-0.982 22.166,-0.733 33.253,-0.596Zm-66.044,-142.757c-1.208,1.208 -1.357,1.881 -1.524,3.556c1.016,1.016 1.016,1.016 2.254,1.429c1.302,0.095 1.302,0.095 2.223,-0.476c0.784,-1.238 0.754,-2.053 0.603,-3.493c-0.727,-0.727 -0.727,-0.727 -3.556,-1.016Zm-26.005,-71.251c-2.083,0.185 -2.959,2.26 -4.922,2.064c-1.198,-0.458 -1.198,-0.458 -4.635,-0.921c-0.318,1.175 -0.318,1.175 -0.508,2.54c0.881,1.322 1.326,2.025 1.524,3.556c-1.143,1.143 -1.143,1.143 -1.524,4.572l1.143,0.35c1.397,0.159 1.397,0.159 2.445,-0.54c1.041,-0.873 1.67,-1.199 3.016,-1.334c1.143,1.143 1.143,1.143 4.572,1.524l0.349,-1.143c0.159,-1.397 0.159,-1.397 -0.539,-2.444c-0.906,-1.08 -1.291,-1.607 -1.334,-3.017c0.688,-0.838 1.365,-1.685 2.032,-2.54c-0.127,-1.429 -0.127,-1.429 -0.508,-2.54l-1.111,-0.127Zm30.069,23.496c-1.754,-0.2 -2.389,-0.111 -3.842,0.953c-1.079,0.941 -1.976,1.52 -3.27,2.095l-0.671,-0.555c-2.029,-1.581 -3.261,-2.311 -5.934,-1.985c-0.2,1.754 -0.111,2.389 0.953,3.842c0.951,1.091 1.489,1.98 2.095,3.271c-1.521,1.57 -2.933,2.804 -3.27,5.016c0.222,1.08 0.222,1.08 0.73,1.588c1.143,0.159 1.143,0.159 2.54,0c1.406,-0.915 2.327,-1.633 3.122,-3.12l0.435,-0.944c2.013,1.754 3.652,3.425 6.35,3.81c1.27,-0.254 1.27,-0.254 1.778,-0.762c-0.139,-1.67 -0.472,-2.492 -1.492,-3.842c-0.911,-1.076 -1.497,-1.994 -2.064,-3.27c0.674,-0.708 1.344,-1.421 1.974,-2.168c0.841,-1.309 0.745,-2.421 0.566,-3.929Zm-7.781,-35.22c-1.457,-0.14 -2.12,-0.066 -3.162,0.976c-0.726,1.113 -0.708,1.777 -0.585,3.083c0.46,0.92 1.014,1.313 1.873,1.873c1.26,0.18 1.944,0.121 3.084,-0.448c0.924,-1.114 1.014,-2.185 0.976,-3.611c-0.444,-0.887 -0.444,-0.887 -2.186,-1.873Zm-28.108,88.007c-0.631,0.03 -0.631,0.03 -1.112,0.511c-0.689,0.726 -1.257,1.266 -2.165,1.683l-0.431,-0.307l-0.575,-0.399c-0.791,-0.554 -1.4,-0.842 -2.36,-0.977l-0.21,0.481c-0.034,0.817 -0.034,0.817 0.646,1.698c0.513,0.615 0.914,1.179 1.247,1.909c-1.007,1.186 -1.617,2.031 -1.683,3.607c0.541,0.165 0.541,0.165 1.202,0.24c0.701,-0.361 0.701,-0.361 2.123,-2.061l0.282,-0.343c0.404,0.234 0.804,0.477 1.202,0.721l0.528,0.378l0.569,0.404c0.542,0.394 0.542,0.394 1.067,0.661c0.548,-0.079 0.548,-0.079 0.962,-0.241l0.18,-0.541c0.061,-0.661 0.061,-0.661 -0.33,-1.142c-0.744,-0.626 -1.563,-1.232 -1.981,-2.127c0.14,-0.943 0.14,-0.943 0.809,-1.705c0.488,-0.608 0.488,-0.608 0.841,-1.217c-0.067,-0.678 -0.067,-0.678 -0.24,-1.203l-0.571,-0.03Zm14.552,-19.765c-2.371,-0.228 -3.45,-0.107 -5.144,1.588c-1.181,1.811 -1.153,2.892 -0.953,5.017c0.749,1.497 1.65,2.135 3.048,3.048c2.051,0.293 3.163,0.196 5.017,-0.731c1.503,-1.812 1.651,-3.554 1.588,-5.874c-0.722,-1.444 -0.722,-1.444 -3.556,-3.048Zm-29.149,-15.304c-1.333,0.063 -1.333,0.063 -2.349,1.079c-1.456,1.533 -2.655,2.675 -4.572,3.557l-0.911,-0.649l-1.217,-0.844c-1.67,-1.171 -2.958,-1.779 -4.985,-2.064l-0.444,1.016c-0.072,1.727 -0.072,1.727 1.365,3.588c1.083,1.299 1.931,2.491 2.635,4.033c-2.127,2.505 -3.417,4.291 -3.556,7.62c1.143,0.35 1.143,0.35 2.54,0.508c1.481,-0.764 1.481,-0.764 4.485,-4.356l0.596,-0.724c0.853,0.496 1.698,1.008 2.54,1.524l1.115,0.798l1.203,0.853c1.145,0.834 1.145,0.834 2.254,1.397c1.157,-0.166 1.157,-0.166 2.032,-0.508l0.381,-1.143c0.127,-1.397 0.127,-1.397 -0.698,-2.413c-1.572,-1.323 -3.302,-2.604 -4.186,-4.495c0.296,-1.993 0.296,-1.993 1.709,-3.602c1.032,-1.284 1.032,-1.284 1.778,-2.572c-0.143,-1.43 -0.143,-1.43 -0.508,-2.54l-1.207,-0.063Z" style="fill:#f00;"/></svg>