<?xml version="1.0" encoding="UTF-8" standalone="no"?><!DOCTYPE svg PUBLIC "-//W3C//DTD SVG 1.1//EN" "http://www.w3.org/Graphics/SVG/1.1/DTD/svg11.dtd"><svg width="100%" height="100%" viewBox="0 0 625 625" version="1.1" xmlns="http://www.w3.org/2000/svg" xmlns:xlink="http://www.w3.org/1999/xlink" xml:space="preserve" xmlns:serif="http://www.serif.com/" style="fill-rule:evenodd;clip-rule:evenodd;stroke-linejoin:round;stroke-miterlimit:2;"><rect id="Artboard1" x="0" y="0" width="625" height="625" style="fill:none;"/><path d="M441.973,516.144c-0.851,-6.178 -3.722,-16.566 -14.983,-36.452c-9.76,-12.399 -10.452,-31.023 -15.192,-46.11c-2.267,-7.853 -4.615,-15.647 -0.547,-23.103c6.054,-10.795 15.563,-26.558 11.96,-39.473l-0.609,-1.748l-0.678,-1.961l-0.708,-1.999c-1.412,-4.028 -2.857,-8.044 -4.305,-12.059l-1.638,-4.535c-3.027,-8.473 -6.05,-16.867 -9.894,-25.011c-1.894,-3.863 -3.235,-6.577 -2.452,-10.956c2.712,-10.399 3.019,-21.433 3.044,-32.13l0.002,-1.521c0.041,-9.409 -0.699,-18.605 -2.257,-27.89l-0.29,-1.632c-2.193,-12.38 -5.045,-25.888 -12.619,-36.198c-1.698,-1.196 -1.698,-1.196 -3.064,-1.401c-7.48,-0.133 -7.48,-0.133 -20.6,10.217l-2.115,1.719c-4.841,3.769 -9.219,7.826 -13.543,12.17c-1.182,1.194 -2.365,2.387 -3.552,3.576c-3.805,3.804 -7.616,7.585 -11.104,11.686c-0.737,0.871 -1.499,1.72 -2.264,2.566c-1.872,2.048 -3.721,4.103 -5.487,6.244l-1.367,1.693c-0.96,1.128 -1.897,2.275 -2.818,3.435c-1.126,2.039 -2.206,3.651 -3.785,5.376c-8.48,2.751 -8.48,2.751 -17.749,1.86c-2.457,-0.1 -4.914,-0.164 -7.373,-0.221l-4.739,-0.105c-7.497,-0.286 -14.232,0.688 -21.5,2.429c-1.363,0.332 -2.724,0.651 -4.097,0.936c-2.817,0.492 -4.783,0.758 -7.217,-0.861l-1.46,-1.387l-1.439,-1.175l-1.532,-1.256c-1.639,-1.34 -3.279,-2.678 -4.909,-4.027c-12.72,-10.532 -26.164,-20.61 -40.52,-28.834c-6.495,-3.579 -16.774,-10.057 -24.459,-7.93c-3.441,5.161 -3.441,5.161 -3.333,18.213l0.014,1.391c0.034,8.728 0.304,17.509 2.084,26.088c0.662,1.192 0.662,1.192 0.865,2.435l0.245,1.479l0.283,1.663c2.097,12.323 5.558,23.733 10.107,35.367c1.298,3.271 2.509,6.55 3.604,9.895l0.332,1.027l1.235,-0c-0.124,-1.765 -0.124,-1.765 0.471,-2.926l0.764,-1.397c2.559,-4.935 5.269,-9.654 8.605,-14.111l1.043,-1.363c1.943,-2.549 3.936,-4.955 6.211,-7.217c2.059,-2.009 3.906,-4.122 5.752,-6.329c-4.622,-0.095 -9.332,-0.452 -13.854,0.656c-2.083,0.807 -2.083,0.807 -3.435,-0.038c6.452,-3.764 13.276,-3.914 20.54,-3.77l2.306,0.065l-0.617,-1.852c-5.311,-4.617 -12.293,-6.788 -19.016,-8.348l-1.36,-0.297l-0,-1.235c6.137,0 12.604,2.042 18.06,4.747c2.679,1.39 4.862,2.321 7.873,2.663l-0,-1.853c-4.647,-10.781 -13.002,-22.156 -21.486,-30.226c-0.743,-0.69 -1.483,-1.383 -2.213,-2.087c-4.464,-4.327 -9.089,-8.142 -14.209,-11.671l-1.609,-1.09l1.235,-0.617c2.486,1.052 4.661,2.436 6.853,3.99l1.096,0.795c5.52,3.99 10.191,8.282 14.693,13.417l0.821,0.939c7.005,7.953 17.516,18.72 18.524,29.638c-0.96,0.669 -1.917,1.343 -2.866,2.028l-1.457,1.059c-17.236,12.301 -32.454,30.707 -37.505,51.613l-0.314,1.372c-0.624,2.684 -1.046,5.343 -1.332,8.085c-0.693,7.005 -1.958,13.731 -3.53,20.588c-2.377,10.263 -3.659,18.852 0.237,28.957c1.193,3.031 2.337,5.954 2.927,9.171c-3.474,-0.013 -6.948,-0.023 -10.423,-0.03l-4.28,-0.009c-2.088,-0.008 -4.176,-0.015 -6.264,-0.019l-2.006,-0.002c-4.732,-0.024 -9.368,0.169 -14.074,0.677c3.371,0.061 6.742,0.124 10.113,0.19l4.166,0.08c7.961,0.144 16.093,-0.061 24.003,0.965c0.788,0.743 0.788,0.743 1.742,2.395c2.13,3.41 4.179,6.745 6.903,9.723c1.459,1.493 2.107,2.48 2.469,4.554l-1.852,0.617c-13.216,3.502 -25.841,8.577 -38.282,14.201c1.355,-0.307 2.636,-0.677 3.944,-1.148l1.64,-0.636l1.839,-0.707c5.521,-2.12 11.022,-4.144 16.721,-5.732c2.065,-0.575 4.102,-1.18 6.126,-1.887c3.792,-1.337 7.594,-2.832 11.642,-3.051c2.036,0.303 3.047,1.273 4.469,2.708c6.039,6.189 13.73,11.447 21.307,15.586c2.793,1.473 4.678,2.689 6.406,5.364c3.146,8.557 2.518,18.766 0.63,27.52c-0.702,3.207 -1.367,6.42 -2.014,9.639l-9.211,25.668c-54.819,-1.389 -120.666,-4.438 -145.612,-11.129c-25.305,-6.773 -45.192,-26.659 -51.966,-51.965c-12.29,-45.822 -12.29,-141.481 -12.29,-141.481c-0,0 -0,-95.659 12.29,-141.48c6.774,-25.306 26.661,-45.193 51.966,-51.967c45.822,-12.29 229.639,-12.29 229.639,-12.29c-0,0 183.82,0 229.639,12.29c25.306,6.774 45.194,26.661 51.967,51.967c12.242,45.821 12.291,141.48 12.291,141.48c0,0 0,95.659 -12.291,141.481c-6.773,25.306 -26.661,45.192 -51.967,51.965c-18.26,4.898 -58.439,7.845 -100.165,9.617Zm-179.84,-84.178c2.088,0.812 4.011,1.847 5.955,2.95c5.345,2.947 10.88,5.036 16.671,6.947l-0,0.617c-6.876,0.529 -12.661,-2.43 -18.477,-5.778c-2.102,-1.189 -3.122,-1.631 -5.604,-1.631c-1.309,1.056 -1.309,1.056 -2.508,2.431c-2.249,2.448 -2.249,2.448 -4.284,3.126c0.974,-2.224 2.318,-3.916 3.898,-5.75l1.421,-1.691c1.473,-1.204 1.473,-1.204 2.928,-1.221Zm83.136,-76.547c2.492,2.12 2.962,3.479 3.235,6.655c0.191,8.141 -2.017,15.729 -7.535,21.861c-6.31,6.036 -14.538,9.081 -23.215,9.38c-7.009,-0.244 -14.4,-2.495 -19.488,-7.525l-1.158,-1.351l-0.617,-0.617c-0.813,-9.218 1.591,-17.11 7.344,-24.31c10.918,-12.012 28.127,-12.29 41.434,-4.093Zm-28.403,-1.235c-1.627,1.627 -2.654,3.178 -3.666,5.249c-2.082,6.858 -1.476,15.055 1.513,21.538c1.76,3.095 3.149,5.418 6.591,6.633c1.737,-0.077 1.737,-0.077 2.687,-0.786c4.006,-5.077 3.676,-12.333 3.372,-18.432c-1.747,-0.454 -3.371,-0.948 -4.939,-1.853c-0.705,-1.9 -0.705,-1.9 -0.618,-3.704l2.47,-1.853c-0.311,-2.698 -1.835,-4.305 -3.705,-6.174c-1.968,-0.618 -1.968,-0.618 -3.705,-0.618Zm-121.638,56.806c10.139,0.63 19.773,2.553 29.638,4.94l-0,0.617c-5.501,-0.461 -10.985,-1.062 -16.47,-1.685c-1.491,-0.169 -2.983,-0.335 -4.474,-0.5l-2.85,-0.323l-1.348,-0.149c-3.12,-0.36 -3.12,-0.36 -4.496,-1.048l0,-1.852Zm30.997,-54.671c8.78,4.336 12.641,11.138 16.014,20.108c0.493,1.64 0.851,3.24 1.151,4.925l0.414,2.07c0.769,5.159 0.769,5.159 -0.711,7.245c-5.031,3.989 -11.397,4.262 -17.552,3.831c-3.297,-0.457 -5.985,-2.053 -8.702,-3.884l-1.283,-0.854c-5.306,-4.037 -7.984,-10.681 -9.214,-17.052c-0.494,-4.783 -0.736,-9.356 1.853,-13.584c5.358,-5.125 11.332,-5.823 18.03,-2.805Zm6.05,4.657c-3.21,-0.944 -4.696,-0.835 -6.251,2.161c-2.633,6.215 -1.673,13.978 0.528,20.176c1.416,3.151 2.887,6.029 6.186,7.378c1.39,-0.077 1.39,-0.077 2.625,-1.312c3.117,-5.326 3.271,-10.633 3.087,-16.671l-4.322,-0.618l-0.618,-3.704l1.853,-1.235l-0,-2.47c-1.007,-1.511 -1.733,-2.565 -3.088,-3.705Zm-8.027,64.833l0,1.235c-2.198,0.52 -4.398,1.032 -6.599,1.543l-1.885,0.447l-1.827,0.422l-1.675,0.392c-1.597,0.283 -3.066,0.334 -4.685,0.283l0.618,-1.852c2.096,-0.417 4.193,-0.827 6.29,-1.235l1.796,-0.357l1.742,-0.338l1.597,-0.313c1.566,-0.231 3.048,-0.267 4.628,-0.227Zm127.247,4.284c-7.787,-1.111 -15.595,-2.043 -23.401,-2.767l-1.754,-0.166c-1.079,-0.099 -2.159,-0.194 -3.239,-0.281c-2.323,-0.207 -3.641,-0.37 -5.617,-1.688c5.962,-0.177 11.845,0.126 17.79,0.579l2.177,0.163c5.191,0.414 5.191,0.414 6.583,1.111c1.815,0.187 3.627,0.351 5.444,0.504c6.71,0.619 13.236,1.822 19.833,3.162l3.287,0.65c7.37,1.463 14.736,2.948 21.952,5.061l2.212,0.644l1.608,0.475l0,0.618c-3.991,-0.382 -7.815,-1.051 -11.731,-1.891c-11.294,-2.334 -22.701,-4.375 -34.153,-6.032l-1.042,-0.104l0.051,-0.038Zm-92.013,-21.187l1.453,-0.022c3.05,0.016 5.098,0.49 7.77,2.106c-0.193,1.466 -0.193,1.466 -0.617,3.087c-1.853,1.235 -1.853,1.235 -3.744,1.66l-1.813,0.81c-0.816,2.134 -0.816,2.134 -1.235,4.322l-1.235,1.235c-1.505,-0.039 -1.505,-0.039 -3.088,-0.617c-0.964,-1.428 -0.964,-1.428 -1.852,-3.088c-1.811,-2.061 -3.866,-3.47 -6.174,-4.939c0.038,-1.119 0.038,-1.119 0.617,-2.47c3.362,-1.813 6.139,-2.141 9.918,-2.084Zm138.271,-2.856l-0,1.235l-1.7,0.037c-24.709,0.563 -49.436,1.832 -73.692,6.852l-2.33,0.475l-2.041,0.432c-1.657,0.22 -2.65,0.161 -4.211,-0.386c5.239,-1.899 10.554,-3.044 16.015,-4.091l2.003,-0.385c8.018,-1.501 16.078,-2.578 24.201,-3.32l1.34,-0.123c13.436,-1.195 26.941,-0.892 40.415,-0.726Zm-80.269,-173.504c-1.468,1.468 -1.649,2.286 -1.852,4.322c1.234,1.235 1.234,1.235 2.74,1.737c1.582,0.115 1.582,0.115 2.701,-0.579c0.953,-1.505 0.917,-2.496 0.733,-4.245c-0.884,-0.884 -0.884,-0.884 -4.322,-1.235Zm-31.606,-86.598c-2.532,0.225 -3.596,2.747 -5.982,2.508c-1.455,-0.556 -1.455,-0.556 -5.634,-1.119c-0.386,1.428 -0.386,1.428 -0.617,3.087c1.071,1.608 1.612,2.462 1.852,4.323c-1.389,1.389 -1.389,1.389 -1.852,5.557l1.389,0.424c1.698,0.193 1.698,0.193 2.972,-0.656c1.265,-1.061 2.03,-1.457 3.666,-1.621c1.389,1.39 1.389,1.39 5.557,1.853l0.424,-1.39c0.193,-1.698 0.193,-1.698 -0.656,-2.971c-1.1,-1.312 -1.569,-1.952 -1.621,-3.666c0.836,-1.019 1.659,-2.049 2.47,-3.087c-0.154,-1.737 -0.154,-1.737 -0.617,-3.088l-1.351,-0.154Zm36.546,28.557c-2.132,-0.243 -2.904,-0.135 -4.67,1.158c-1.312,1.143 -2.402,1.848 -3.975,2.547l-0.815,-0.675c-2.466,-1.922 -3.963,-2.809 -7.212,-2.412c-0.243,2.131 -0.134,2.903 1.158,4.669c1.156,1.326 1.811,2.406 2.547,3.975c-1.848,1.909 -3.566,3.408 -3.975,6.097c0.27,1.312 0.27,1.312 0.888,1.93c1.389,0.193 1.389,0.193 3.087,-0c1.709,-1.113 2.828,-1.985 3.794,-3.792l0.528,-1.148c2.447,2.132 4.439,4.163 7.718,4.631c1.544,-0.309 1.544,-0.309 2.161,-0.926c-0.169,-2.03 -0.573,-3.029 -1.813,-4.67c-1.107,-1.307 -1.819,-2.423 -2.509,-3.974c0.819,-0.86 1.633,-1.727 2.4,-2.634c1.022,-1.592 0.906,-2.943 0.688,-4.776Zm-9.458,-42.806c-1.77,-0.171 -2.576,-0.08 -3.842,1.186c-0.882,1.353 -0.861,2.16 -0.711,3.747c0.559,1.119 1.232,1.596 2.277,2.277c1.531,0.219 2.362,0.147 3.747,-0.545c1.123,-1.354 1.233,-2.656 1.186,-4.388c-0.539,-1.079 -0.539,-1.079 -2.657,-2.277Zm-34.162,106.963c-0.767,0.036 -0.767,0.036 -1.351,0.621c-0.838,0.882 -1.528,1.539 -2.631,2.046l-0.524,-0.374l-0.699,-0.485c-0.961,-0.674 -1.702,-1.023 -2.868,-1.187l-0.256,0.584c-0.041,0.993 -0.041,0.993 0.786,2.064c0.623,0.748 1.111,1.433 1.516,2.32c-1.224,1.441 -1.966,2.469 -2.046,4.384c0.657,0.201 0.657,0.201 1.461,0.292c0.852,-0.439 0.852,-0.439 2.58,-2.506l0.343,-0.416c0.491,0.285 0.976,0.58 1.461,0.876l0.641,0.459l0.692,0.491c0.659,0.48 0.659,0.48 1.297,0.804c0.666,-0.096 0.666,-0.096 1.169,-0.292l0.219,-0.658c0.073,-0.804 0.073,-0.804 -0.402,-1.388c-0.904,-0.761 -1.899,-1.498 -2.407,-2.586c0.17,-1.146 0.17,-1.146 0.983,-2.072c0.593,-0.738 0.593,-0.738 1.023,-1.479c-0.083,-0.823 -0.083,-0.823 -0.293,-1.462l-0.694,-0.036Zm17.687,-24.022c-2.882,-0.277 -4.193,-0.13 -6.252,1.929c-1.436,2.202 -1.401,3.516 -1.158,6.098c0.91,1.819 2.005,2.596 3.705,3.704c2.492,0.356 3.844,0.239 6.097,-0.887c1.827,-2.203 2.006,-4.321 1.93,-7.14c-0.878,-1.754 -0.878,-1.754 -4.322,-3.704Zm-35.427,-18.601c-1.621,0.077 -1.621,0.077 -2.856,1.312c-1.769,1.862 -3.226,3.251 -5.557,4.322l-1.107,-0.789l-1.478,-1.025c-2.03,-1.423 -3.595,-2.162 -6.059,-2.508l-0.54,1.235c-0.088,2.098 -0.088,2.098 1.659,4.361c1.316,1.579 2.347,3.026 3.203,4.901c-2.586,3.044 -4.153,5.215 -4.322,9.261c1.389,0.425 1.389,0.425 3.087,0.618c1.8,-0.929 1.8,-0.929 5.451,-5.294l0.724,-0.881c1.038,0.603 2.064,1.226 3.087,1.853l1.356,0.969l1.461,1.037c1.392,1.013 1.392,1.013 2.74,1.698c1.406,-0.202 1.406,-0.202 2.47,-0.617l0.463,-1.389c0.154,-1.698 0.154,-1.698 -0.849,-2.933c-1.91,-1.609 -4.013,-3.165 -5.087,-5.463c0.36,-2.422 0.36,-2.422 2.077,-4.378c1.254,-1.56 1.254,-1.56 2.161,-3.126c-0.174,-1.739 -0.174,-1.739 -0.617,-3.087l-1.467,-0.077Z" style="fill:#f00;"/></svg>